<?xml version="1.0" encoding="UTF-8"?>
<svg id="Capa_2" data-name="Capa 2" xmlns="http://www.w3.org/2000/svg" viewBox="0 0 99.3 98.96">
  <defs>
    <style>
      .cls-1 {
        fill: #144163;
      }
    </style>
  </defs>
  <g id="Capa_1-2" data-name="Capa 1">
    <g>
      <path class="cls-1" d="M99.29,49.73c-.09,27.08-22.31,49.1-49.4,49.24C21.71,99.1-.09,76.51,0,49.36,.09,21.34,23-.11,50.08,0c27.38,.11,49.84,23.59,49.21,49.73Z"/>
      <path d="M37.35,13.24c-9.12,12.63-9.23,22.84-.51,30.32,7.4,6.34,20.31,6.31,27.3-1.65,7.33-8.34,6.85-18.37-2.35-28.75,16.94,4.34,29.12,22.19,27.6,40.34-1.73,20.76-17.09,36.67-39.29,36.94-21.19,.25-36.99-14.4-39.74-34.37-3.04-22.05,12.14-39.09,26.98-42.82Z"/>
    </g>
  </g>
</svg>