<?xml version="1.0" encoding="UTF-8"?>
<svg id="Capa_2" data-name="Capa 2" xmlns="http://www.w3.org/2000/svg" viewBox="0 0 100.84 101.24">
  <defs>
    <style>
      .cls-1 {
        fill: #a68a31;
      }

      .cls-2 {
        fill: #332b0f;
      }

      .cls-3 {
        fill: #90782a;
      }
    </style>
  </defs>
  <g id="Capa_1-2" data-name="Capa 1">
    <g>
      <path class="cls-1" d="M0,50.62C-.27,23.21,21.89,.02,50.07,0c28.43-.02,50.94,22.41,50.78,50.71-.16,28.55-22.47,50.36-50.37,50.53C22.87,101.41-.13,78.76,0,50.62Z"/>
      <path d="M59.82,22.23c-5.4-.99-10.79-1.99-16.32-.91-10.6,2.07-15.94,10.07-13.68,20.58,2.03,9.41,8.46,16.6,18.06,19.81-2.11-8.92-4.15-17.58-6.2-26.24,.21-.14,.43-.28,.64-.42,3.87,3.41,7.77,6.78,11.6,10.22,9.66,8.66,19.26,17.39,28.98,25.99,1.67,1.48,1.84,2.49,.47,4.28-7.21,9.41-17.02,12.76-28.19,10.79-20.11-3.55-34.26-15.02-41.33-34.37-3.11-8.52-3.02-17.22,2.01-25.22,6.79-10.81,17.2-13.37,28.98-11.88,6.21,.78,12.1,2.94,17.4,6.45-.23,1.82-1.4,1.18-2.42,.92Z"/>
      <path class="cls-2" d="M59.82,22.23c.85-.19,1.89,.12,2.42-.92,1.9,.68,3.45,1.83,5.39,4.12-3.17-1.3-5.49-2.25-7.81-3.2Z"/>
      <path class="cls-3" d="M54.87,57.5c3.27,2.3,5.84,5.03,8.89,7.98-7.56-.63-8.67-1.66-8.89-7.98Z"/>
    </g>
  </g>
</svg>