<?xml version="1.0" encoding="UTF-8"?>
<svg id="Capa_2" data-name="Capa 2" xmlns="http://www.w3.org/2000/svg" viewBox="0 0 100.56 100.54">
  <defs>
    <style>
      .cls-1 {
        fill: #facc2f;
      }
    </style>
  </defs>
  <g id="Capa_1-2" data-name="Capa 1">
    <g>
      <path class="cls-1" d="M49.84,100.53C20.12,100.23-.44,76.41,0,49.53,.48,21.21,23.39-.54,50.44,.01c29.28,.59,50.01,21.63,50.12,50.8,.11,27.46-22.63,50.07-50.72,49.72Z"/>
      <path d="M50.1,2.09c-2.35,14.52-4.7,29.03-7.14,44.14,13.72-4.14,26.8-8.09,39.97-12.07-.6,3.12-27.95,61.46-30.75,65.44,1.51-8.03,2.9-15.45,4.29-22.88,1.37-7.32,2.75-14.64,4.26-22.68-14.62,4.28-28.64,8.38-43.71,12.8C28.03,44.61,38.63,23.21,49.23,1.82c.29,.09,.58,.18,.86,.27Z"/>
    </g>
  </g>
</svg>