<?xml version="1.0" encoding="UTF-8"?>
<svg id="Capa_2" data-name="Capa 2" xmlns="http://www.w3.org/2000/svg" viewBox="0 0 100.32 100.71">
  <defs>
    <style>
      .cls-1 {
        fill: #a93524;
      }

      .cls-2 {
        fill: #010000;
      }
    </style>
  </defs>
  <g id="Capa_1-2" data-name="Capa 1">
    <g>
      <path class="cls-1" d="M50.04,0c29.4,1.44,50.54,23.61,50.28,50.69-.28,28.89-23.18,50.45-50.75,50.02C20.43,100.26-.18,78.2,0,50.24,.19,20.82,22.38,1.52,50.04,0Z"/>
      <path d="M80.65,64.45c0,2.37,.03,4.73,0,7.1-.06,4.03-2.16,6.12-6.22,6.23-.87,.02-1.74-.03-2.62-.03-5.89-.01-7.38,1.27-7.56,7.05-.07,2.15-.81,2.78-2.87,2.76-8.1-.08-16.19-.04-24.29-.03-1.46,0-3.03-.12-2.78-2.05,.21-1.68-1.45-4.14,1.8-4.82,3.51-.73,4.7-3.13,4.67-6.59-.03-5.06,1.74-6.7,6.71-6.68,4.32,.01,7.05-2.02,6.56-6.23-1.14-9.89,2.58-10.84,11.46-10.34,3.1,.17,6.23-.06,9.34,0,3.75,.07,5.71,2.02,5.83,5.77,.08,2.61,.02,5.23,.02,7.85-.01,0-.03,0-.04,0Z"/>
      <path d="M34.63,50.81c3.48,0,6.96-.07,10.44,.02,3.85,.1,5.79,2.57,5.76,7.1-.03,4.02-1.95,6.14-5.7,6.29-6.06,.25-7.12,1.28-7.4,7.14-.18,3.74-2.36,5.89-6.11,5.95-2.86,.04-5.72,0-8.58,0-3.35,.01-5.21-1.87-5.33-4.99-.22-5.46-.27-10.95,0-16.41,.16-3.28,2.37-5.08,5.73-5.13,3.73-.05,7.46-.01,11.19-.01v.03Z"/>
      <path class="cls-2" d="M50.62,32.64c0-3.61,.03-7.23,0-10.84-.03-2.61,1.16-3.79,3.81-3.96,10.12-.63,10.24-.56,10.24,9.61,0,5.11,.06,10.22-.02,15.33-.07,4.17-1.01,5.04-5.07,5.12q-8.96,.18-8.96-8.91c0-2.12,0-4.24,0-6.35h.01Z"/>
      <path d="M34.01,32.93c0-3.87,.02-7.73,0-11.6-.01-2.32,1.1-3.43,3.42-3.45,11.09-.09,10.37-.82,10.31,9.46-.03,5.36-.07,10.73,.01,16.09,.05,3.16-1.33,4.44-4.49,4.51-9.34,.2-9.33,.28-9.31-9.03,0-2,0-3.99,0-5.99,.02,0,.04,0,.06,0Z"/>
      <path class="cls-2" d="M66.45,34.7c0-2.74,.03-5.49,0-8.23-.04-3.3,1.59-4.65,4.84-4.72,9.04-.22,9.24-.1,9.26,8.89,0,4.11-.09,8.23-.01,12.34,.07,3.38-1.21,4.97-4.83,4.99-9.25,.05-9.25,.16-9.25-9.15,0-1.37,0-2.74,0-4.11Z"/>
      <path class="cls-2" d="M17.65,34.65c0-2.74-.02-5.48,.01-8.22,.01-.86-.13-1.93,.31-2.55,2.65-3.74,6.62-1.74,10.02-2.01,2.42-.19,3.6,1.7,3.64,3.9,.11,6.1,.12,12.21-.03,18.31-.06,2.42-1.47,3.83-4.12,3.83-10.34,0-9.98,.79-9.85-9.15,.02-1.37,0-2.74,0-4.11Z"/>
    </g>
  </g>
</svg>