<?xml version="1.0" encoding="UTF-8"?>
<svg id="Capa_2" data-name="Capa 2" xmlns="http://www.w3.org/2000/svg" viewBox="0 0 100.96 101.36">
  <defs>
    <style>
      .cls-1 {
        fill: #440a0d;
      }

      .cls-2 {
        fill: #d82129;
      }
    </style>
  </defs>
  <g id="Capa_1-2" data-name="Capa 1">
    <g>
      <path class="cls-2" d="M100.96,50.69c-.14,27.88-22.87,50.57-50.62,50.67C23.21,101.46-.49,78.82,0,50.25,.5,22.22,20.9,.57,49.89,0c28.58-.55,51.4,23.53,51.07,50.69Z"/>
      <path d="M37.98,91.91c-14.77-3.09-27.96-15.86-29.32-28.67,3.95,2.82,7.61,5.81,13.21,7.07-6.49-8.28-10.56-16.63-8.07-26.69,1.49-6.04,5.37-10.47,10.44-14.43-3.86,12.19-2.78,16.75,5.2,22.51,.53-1.34-.47-2.32-.75-3.43-1.49-6.07-.04-11.34,4.14-15.92,3.04-3.33,6.52-6.17,10.02-8.99,6.69-5.38,7.18-7.67,3.1-15.21-.29-.54-.61-1.06-1.14-1.98,2.58-.06,4.26,1.21,5.88,2.31,8.01,5.44,11.53,13.48,12.81,22.72,.62,4.46,.87,8.94,.15,13.42-.41,2.56,.62,3.37,3.12,2.98,7.55-1.15,13.74-4.29,17.04-11.79,4,5.52,4.18,11.33,.73,17.02-3.09,5.1-7.69,8.68-13.35,12.65,8.72-.07,14.98-3.38,20.73-8.51-.67,10.99-13.7,31.64-32.1,34.87-1.1,.42-2.19,.73-3.16-.29,.52-2.03,2.53-2.18,3.94-3.05,3.49-2.16,4.35-4.6,2.32-8.15-2.38-4.16-2.54-8.22-.09-12.69-1.56-.15-2.68,.53-3.74,1.28q-4.27,3-6.26-2.02c-.37-.94-.71-1.97-1.53-2.53-3.9-2.69-4.56-5.98-1.53-10.33-3.12,.61-5.18,1.93-7.06,3.53-3.21,2.73-3.43,4.56-.78,7.91,2.01,2.54,3.03,5.19,1.53,8.28-1.11,2.28-2.57,2.43-4.24,.5-.74-.84-1.34-1.8-2.3-2.43-.62-.41-1.28-.77-3.04-1.39,3.47,3.23,2.67,5.97,.92,8.79-2.43,3.92-1.98,5.57,1.47,8.6,1.56,1.37,3.96,1.58,4.92,3.71-.97,1.07-2.11,.63-3.23,.36Z"/>
      <path class="cls-1" d="M37.98,91.91c1.01-.36,2.31,.33,3.1-.85,.64-.7,1.5-.97,2.36-.84,3.7,.54,7.39,.49,11.09,0,.86-.11,1.72,.16,2.31,.93,.82,1,2,.4,2.98,.68-7.28,2.01-14.56,2.15-21.85,.07Z"/>
      <path class="cls-2" d="M56.84,91.16c-5.26,.67-10.51,.86-15.76-.1-3.96-.39-6.41-2.98-8.43-6.02-1.23-1.86-.86-3.67,.58-5.48,3.35-4.21,3.16-5.85-.73-9.37,3-.91,4.75-.15,7.21,3.05,.49,.63,.59,1.99,1.7,1.59,.68-.25,1.24-1.22,1.54-1.98,.89-2.3,.31-4.31-1.31-6.2-3.89-4.52-3.62-6.68,1.09-10.39,2.46-1.93,4.85-2.86,8.18-3.16,.52,1.01-.33,1.6-.8,2.21-2.3,3.03-2.3,5.5,1.21,7.77,2.73,1.77,3.11,4.91,3.46,8.3,3-2.7,5.62-5.71,10.49-4.9-4.49,4.59-4.19,9.13-1.14,14.1,2.11,3.44,1,6.45-2.56,8.48-1.49,.85-3.13,1.41-4.71,2.1Z"/>
    </g>
  </g>
</svg>