<?xml version="1.0" encoding="UTF-8"?>
<svg id="Capa_2" data-name="Capa 2" xmlns="http://www.w3.org/2000/svg" viewBox="0 0 100.61 100.84">
  <defs>
    <style>
      .cls-1 {
        fill: #2d384b;
      }

      .cls-2 {
        fill: #7591c2;
      }
    </style>
  </defs>
  <g id="Capa_1-2" data-name="Capa 1">
    <g>
      <path class="cls-2" d="M100.61,50.23c-.27,29.09-23.09,50.83-50.19,50.61C21.53,100.61,.18,79.25,0,50.53-.18,22.21,21.56-.02,50.49,0c27.66,.02,49.4,21.3,50.12,50.23Z"/>
      <path class="cls-1" d="M84.62,18.25c.44,14.39-7.63,32.98-30.74,33.14,7.93,2.39,15.07,1.08,21.99-2.93-3.04,6.99-9.13,9.7-16.51,11.12,5.99,1.09,7.2,.82,14.46-3.11-.66,3.74-3.69,6.77-8.54,7.77-2.57,.53-3.86,1.24-5.11,4-2.98,6.56-8.69,10.6-15.78,11.95-13.35,2.55-24.53-5.38-27.81-16.14-4.72-15.52,6.45-31.04,22.63-31.02,10.68,.01,21.29-.04,31.58-3.6,5.08-1.76,8.71-5.04,11.74-9.25,.49-.68,.76-1.6,2.08-1.93Z"/>
    </g>
  </g>
</svg>