<?xml version="1.0" encoding="UTF-8"?>
<svg id="Capa_2" data-name="Capa 2" xmlns="http://www.w3.org/2000/svg" viewBox="0 0 100.83 100.8">
  <defs>
    <style>
      .cls-1 {
        fill: #4b69b0;
      }

      .cls-2 {
        fill: #4c6ab1;
      }
    </style>
  </defs>
  <g id="Capa_1-2" data-name="Capa 1">
    <g>
      <path class="cls-2" d="M100.83,50.46c-.45,28.07-23.07,50.6-50.54,50.34C21.15,100.52,.12,78.01,0,50.33-.12,22.62,22.53,.14,50.4,0c27.15-.14,50.4,23.33,50.43,50.46Z"/>
      <path d="M77.78,79.33c-13.86,7.12-43.5,5.17-54.66-10.64-7.27-10.3-8.72-21.43-3.54-32.76,5.29-11.58,14.64-18.13,27.66-19.01,18.18-1.23,31.56,11.15,34.39,25.66,1.79,9.19,.34,17.8-5.32,25.49q-4.63,6.29,1.47,11.26Z"/>
      <path class="cls-1" d="M33.79,39.46c2.84,5.96,4.88,7.2,10.78,6.28,.03,3.42-1.89,5.11-4.81,5.98-3.24,.97-6.68-.52-8.16-3.46-1.56-3.1-.79-6.19,2.19-8.8Z"/>
      <path class="cls-1" d="M54.08,45.68c5.56,.94,7.91-.02,10.09-4.4,1.18-2.37,2.04-1.64,2.9,0,1.35,2.57,1.42,5.27-.21,7.72-1.55,2.34-3.96,3.45-6.72,3.01-3.35-.53-5.52-2.5-6.06-6.32Z"/>
    </g>
  </g>
</svg>