<?xml version="1.0" encoding="UTF-8"?>
<svg id="Capa_2" data-name="Capa 2" xmlns="http://www.w3.org/2000/svg" viewBox="0 0 99.98 100.18">
  <defs>
    <style>
      .cls-1 {
        fill: #238742;
      }

      .cls-2 {
        fill: #228641;
      }
    </style>
  </defs>
  <g id="Capa_1-2" data-name="Capa 1">
    <g>
      <path class="cls-1" d="M99.94,50.27c.69,26.63-22.73,50.39-50.06,49.91C21.56,99.68,.27,78.93,0,49.89-.25,22.23,22.54,.08,50.22,0c26.16-.08,50.76,23.26,49.72,50.27Z"/>
      <path d="M11.54,52.49c.09-7.43,4.7-15.35,11.6-22.1,10.99-10.77,24.38-17.53,38.6-22.91,1.43-.54,2.36-.36,3.22,.81,8.88,12.11,17.02,24.65,20.82,39.4,3.77,14.63-.96,23.28-15.16,28.66-6.46,2.45-13.24,3.47-20.02,4.24-2.95,.34-3.34,1.58-3.16,4.09,.7,9.66,.78,7.46-7.82,6.39-2.12-.26-3.39-1.36-3.47-3.64-.22-6.12-3.26-9.24-9.22-11.51-10.39-3.96-15.37-11.73-15.39-23.43Z"/>
      <path class="cls-2" d="M71.49,61.1c-9.49-1.32-18.1,.53-26.04,5.85-2.76,1.84-4.18,3.98-4.01,7.38,.11,2.19-.42,4.41-.74,7.32-1.93-3.2-2.62-6.07-2.9-9-.78-8.13-3.81-11.86-11.72-14.16-1.89-.55-3.78-1.1-6.28-1.82,5.65-2.25,10.33-1.11,14.79,1.31,2.47,1.34,3.74,1.78,4.3-1.86,.93-6,.31-7.86-5.48-11.09-1.4-.78-2.94-1.35-4.48-1.84-1.34-.43-2.76-.63-5.06-1.14,5.66-2.16,10.05-1.07,14.4,.96,1.2,.56,2.57,2.84,3.67,1.2,1.32-1.96,3.21-4.44,1.03-7.17-2.35-2.93-5.08-5.41-9.03-7.21,3.83-1.55,6.58,.1,9,1.72,3.15,2.11,4.7,1.16,6.3-1.84,1.72-3.22,3.9-6.2,5.88-9.28,.28,.15,.56,.29,.83,.44-1.67,4.09-3.34,8.18-5.3,12.98,6.34-2.51,12.33-3.39,19.27-1.28-9.82,1.35-19.28,1.86-22.83,12.9,9-3.64,17.66-4.02,27.02,1.72-5.22-.46-9.32-1.58-13.63-.92-5.19,.8-9.78,2.84-14.21,5.4-1.63,.94-3.64,7.87-2.8,9.22,.63,1.02,1.57,.49,2.34,.22,3.06-1.09,6.21-1.83,9.41-2.31,5.64-.84,11.07-.04,16.26,2.3Z"/>
    </g>
  </g>
</svg>