<?xml version="1.0" encoding="UTF-8"?>
<svg id="Capa_2" data-name="Capa 2" xmlns="http://www.w3.org/2000/svg" viewBox="0 0 100.73 100.74">
  <defs>
    <style>
      .cls-1 {
        fill: #e77236;
      }
    </style>
  </defs>
  <g id="Capa_1-2" data-name="Capa 1">
    <g>
      <path class="cls-1" d="M100.73,50.42c-.2,28.11-23.26,50.47-50.13,50.32C22.03,100.58,.15,79.04,0,50.18-.15,22.41,21.98,.06,50.5,0c27.03-.06,50.04,22.27,50.23,50.42Z"/>
      <path d="M58.99,70.38c-8.36,0-16.72-.09-25.07,.05-2.83,.05-3.13-.76-2.15-3.24,5.1-12.82,10.09-25.68,15.05-38.55,.76-1.96,1.74-2.93,4.05-2.85,5.61,.19,11.23,.13,16.84,.02,1.99-.04,3.11,.46,3.88,2.5,4.92,13.14,9.92,26.26,15.08,39.32,.94,2.37,.39,2.79-1.85,2.78-8.61-.06-17.21-.02-25.82-.02Z"/>
      <path d="M17.26,70.74q-6.74,0-4.27-6.4c3.34-8.68,6.71-17.35,9.95-26.07,.71-1.9,1.6-2.86,3.74-2.65,3.08,.3,7.42-1.3,8.97,.59,1.66,2.02-1.33,5.56-2.33,8.4-2.38,6.79-4.95,13.51-7.56,20.21-2.73,7-.67,5.79-8.51,5.93Z"/>
    </g>
  </g>
</svg>