<?xml version="1.0" encoding="UTF-8"?>
<svg id="Capa_2" data-name="Capa 2" xmlns="http://www.w3.org/2000/svg" viewBox="0 0 100.75 100.71">
  <defs>
    <style>
      .cls-1 {
        fill: #000101;
      }

      .cls-2 {
        fill: #4cd0bf;
      }
    </style>
  </defs>
  <g id="Capa_1-2" data-name="Capa 1">
    <g>
      <path class="cls-2" d="M50.15,100.71C22.65,100.83-.51,77.42,0,50.1,.54,22.22,21.02,.05,50.6,0c27.64-.04,49.7,21.63,50.14,50.2,.42,27.57-23.02,50.59-50.59,50.51Z"/>
      <path class="cls-1" d="M70.87,29.71c2.51,6.98-1.92,10.82-8.93,13.28-2.67,.94-5.14,2.48-7.68,3.79-1.63,.84-2.72,1.16-2.66-1.43,.12-5.11,.08-10.22,0-15.33-.02-1.58,.54-2.53,1.93-3.24,4.98-2.53,9.96-5.08,14.86-7.75,2.08-1.13,2.57-.52,2.49,1.59-.1,2.61-.02,5.23-.02,9.09Z"/>
      <path class="cls-1" d="M70.88,72.49c0,1.62,0,3.23,0,4.85q0,5.7-4.9,3.16c-4.06-2.11-8.07-4.31-12.17-6.35-1.5-.75-2.25-1.6-2.2-3.39,.12-4.97,.09-9.94,.02-14.91-.04-2.4,.74-2.85,2.86-1.74,4.5,2.35,9.01,4.71,13.63,6.79,2.16,.97,2.99,2.2,2.8,4.52-.19,2.35-.04,4.72-.04,7.08Z"/>
      <path class="cls-1" d="M29.82,28.33c0-2.73,.03-5.47,0-8.2-.03-1.84,.62-2.17,2.23-1.3,5.12,2.75,10.28,5.44,15.45,8.1,1.14,.59,1.59,1.39,1.58,2.66-.04,5.34-.05,10.69,0,16.03,.02,1.82-.53,2.18-2.16,1.34-5.18-2.64-10.4-5.23-15.63-7.77-1.21-.59-1.51-1.42-1.48-2.66,.07-2.73,.02-5.47,.02-8.2Z"/>
      <path class="cls-1" d="M29.82,71.07c-2.3-6.77,1.61-10.9,8.9-13.17,2.57-.8,4.95-2.27,7.33-3.59,2.03-1.12,3.12-1.25,3.05,1.64-.13,4.97-.07,9.94-.02,14.91,.01,1.36-.27,2.29-1.62,2.98-5.07,2.6-10.07,5.33-15.1,8.01-1.84,.98-2.69,.6-2.58-1.66,.13-2.6,.03-5.22,.03-9.13Z"/>
      <path d="M50.8,50.4c6.83-3.32,12.81-6.23,18.79-9.15,.95-.46,1.73,.08,2.47,.43,5.05,2.42,10.04,4.94,15.1,7.34,2.13,1.01,2.05,1.87,.06,2.83-5.04,2.43-10.12,4.77-15.1,7.3-1.63,.83-2.9,.28-4.23-.36-5.36-2.6-10.7-5.24-17.09-8.39Z"/>
      <path d="M30.54,41.02c.45,.18,.92,.33,1.36,.55,5.13,2.49,10.25,4.99,15.37,7.48,.66,.32,1.5,.59,1.56,1.4,.07,.94-.96,1.05-1.56,1.35-5,2.47-10.05,4.83-15.04,7.32-1.41,.71-2.59,.47-3.88-.17-5-2.46-10-4.93-15.04-7.32-1.56-.74-2.12-1.47-.28-2.37,5.45-2.69,10.94-5.28,16.42-7.91,.33-.16,.7-.22,1.1-.35Z"/>
    </g>
  </g>
</svg>