<?xml version="1.0" encoding="UTF-8"?>
<svg id="Capa_2" data-name="Capa 2" xmlns="http://www.w3.org/2000/svg" viewBox="0 0 100.64 100.41">
  <defs>
    <style>
      .cls-1 {
        fill: #eceef0;
      }
    </style>
  </defs>
  <g id="Capa_1-2" data-name="Capa 1">
    <g>
      <path class="cls-1" d="M100.64,50.39c-.53,27.68-22.04,50.72-51.16,50.01C19.82,99.67-.07,77.37,0,50.65,.08,21.28,20.83,.09,50.5,0c27.65-.08,49.43,21.02,50.15,50.39Z"/>
      <path d="M13.33,71.8c5.51-5.45,10.79-10.91,15.67-16.74,3.63-4.34,3.65-5.45,.25-10.11-3.4-4.67-7.65-8.53-11.8-12.48-1.4-1.33-3.11-2.39-4.21-4.57,6.44,2.1,12.49,4.38,18.85,5.61,8.33,1.61,9.55,.97,12.65-6.82,2.49-6.28,3.85-12.86,5.21-19.98,1.6,3.16,1.86,6.16,2.6,9,1.25,4.82,2.43,9.65,4.51,14.23,1.52,3.33,3.75,4.65,7.39,4.18,5.98-.76,11.69-2.47,17.37-4.37,1.61-.54,3.15-1.46,5.46-1.3-2.58,2.45-4.93,4.58-7.15,6.83-2.63,2.66-5.33,5.27-7.68,8.16-4.77,5.85-4.68,7.08-.13,12.96,3.45,4.46,7.71,8.14,11.76,12.02,1.12,1.07,2.25,2.12,3.86,3.64-7.29-2.03-13.83-3.97-20.43-5.67-7.13-1.83-8.6-.96-11.27,5.87-2.23,5.71-3.83,11.59-5.01,17.6-.23,1.17-.05,2.52-1.31,3.54-1.31-7.74-3-15.27-6.09-22.4-2.16-4.99-3.47-5.75-8.94-5.04-7.44,.97-14.39,3.75-21.54,5.82Z"/>
    </g>
  </g>
</svg>