<?xml version="1.0" encoding="UTF-8"?>
<svg id="Capa_2" data-name="Capa 2" xmlns="http://www.w3.org/2000/svg" viewBox="0 0 101 101.02">
  <defs>
    <style>
      .cls-1 {
        fill: #b467cd;
      }
    </style>
  </defs>
  <g id="Capa_1-2" data-name="Capa 1">
    <g>
      <path class="cls-1" d="M50.38,0c27.57-.06,50.79,22.91,50.62,50.47-.17,28.05-22.6,50.16-50.18,50.55C23.18,101.4,.07,78.29,0,50.72-.07,23.03,22.74,.06,50.38,0Z"/>
      <path d="M58.15,78.04c-2.19,3.73-4.88,6.16-9.44,5.25-2.86-.57-4.04-4.33-5.95-4.37-1.92-.04-2.95,3.96-5.71,4.67-2.46,.64-4.69,.23-6.63-1.48-2.27-2-3.89-4.65-3.52-7.54,.62-4.83-1.55-7.82-4.59-11.24-10.11-11.4-8.48-27.23,3.39-37.51,13.76-11.91,37.15-11.5,50.52,.87,11.91,11.02,12.11,27.69,.32,38.98-1.87,1.79-2.97,3.37-2.37,6.07,.4,1.8,.07,3.72-.57,5.52-1.15,3.22-2.92,5.88-6.54,6.48-3.72,.62-6.12-1.42-7.9-4.43-.24-.41-.59-.75-1.02-1.29Z"/>
      <path class="cls-1" d="M50.36,31.18c6.36-.01,12.07,1.77,16.68,6.3,5.52,5.43,5.45,12.75-.05,18.25-8.28,8.26-24.89,8.24-33.11-.05-5.95-5.99-5.18-14.47,1.79-19.79,3.99-3.04,9.16-4.7,14.69-4.7Z"/>
    </g>
  </g>
</svg>