<?xml version="1.0" encoding="UTF-8"?>
<svg id="Capa_2" data-name="Capa 2" xmlns="http://www.w3.org/2000/svg" viewBox="0 0 100.83 101.02">
  <defs>
    <style>
      .cls-1 {
        fill: #c7b585;
      }
    </style>
  </defs>
  <g id="Capa_1-2" data-name="Capa 1">
    <g>
      <path class="cls-1" d="M0,50.2C.97,21.61,22.55-.18,50.57,0c28.46,.18,50.43,21.83,50.27,51.11-.15,27.67-21.7,49.95-50.4,49.91-29.03-.04-49.9-22.9-50.43-50.82Z"/>
      <path d="M53.43,22.67c4.24,0,8.48,.08,12.72-.03,2.06-.06,2.83,.33,2.43,2.69-1.13,6.49-1.99,13.02-2.9,19.55-.27,1.95-1.1,3.32-2.81,4.47-10.1,6.84-20.14,13.77-30.12,20.78-1.61,1.13-2.94,1.4-4.79,.71-4.17-1.55-9.86-1.71-12.25-4.63-2.45-2.99-.45-8.63-.73-13.09-.12-1.92,.61-3.33,1.76-4.71,6.55-7.84,13.12-15.67,19.58-23.58,1.31-1.6,2.69-2.28,4.77-2.2,4.11,.15,8.23,.05,12.34,.05Z"/>
      <path d="M37.34,72.6c9.36-6.41,18.59-12.7,27.78-19.05,1.13-.78,1.75-.51,2.33,.54,.12,.22,.28,.41,.41,.62,1.97,3,5.66,6.15,5.44,8.98-.24,2.96-5.21,4.37-8,6.6-.97,.77-2.18,1.3-3.01,2.19-5.48,5.93-11.66,6.43-18.55,2.71-1.93-1.04-4.35-.96-6.39-2.59Z"/>
      <path d="M69.91,48.18c1.44-8.22,2.82-16.15,4.2-24.07,.1-.59,0-1.34,.86-1.37,1.21-.03,1.2,.99,1.45,1.8,2.43,7.66,4.88,15.31,7.32,22.96,.15,.47,.26,.95,.41,1.42,2.04,6.2,1.26,8.07-4.46,10.99-.71,.36-1.32,.75-1.92-.08-2.55-3.51-5.12-7.01-7.64-10.54-.25-.35-.19-.91-.23-1.11Z"/>
    </g>
  </g>
</svg>