<?xml version="1.0" encoding="UTF-8"?>
<svg id="Capa_2" data-name="Capa 2" xmlns="http://www.w3.org/2000/svg" viewBox="0 0 100.95 100.95">
  <defs>
    <style>
      .cls-1 {
        fill: #8a9199;
      }

      .cls-2 {
        fill: #010101;
      }
    </style>
  </defs>
  <g id="Capa_1-2" data-name="Capa 1">
    <g>
      <path class="cls-1" d="M50.09,100.94C22.83,101.34-.48,77.87,0,50.08,.49,22.36,21.19-.08,50.79,0c28.03,.07,50.17,22.62,50.17,50.75,0,27.65-23.63,50.75-50.86,50.19Z"/>
      <path d="M50.77,71.36c-6.31-11-12.29-21.43-18.27-31.86-1.08-1.89,.08-2.06,1.55-2.06,11.07,0,22.14,.03,33.2-.02,2.14,0,2.73,.52,1.56,2.54-5.91,10.22-11.77,20.47-18.04,31.4Z"/>
      <path class="cls-2" d="M50.59,89.45c-.75,0-1.49,0-2.24,0-10.95,0-10.87-.05-16.19-9.79-1.8-3.29,1.17-4.69,2.15-6.86,1.25-2.77,2.89-3.38,4.21-.1,2.9,7.19,8.18,9.4,15.58,8.29,2.2-.33,3.74-.79,4.73-2.8,.49-1,1.09-1.98,1.81-2.82,1.39-1.65,2.15-5.21,4.01-4.72,2.24,.58,3.09,3.94,4.57,6.07,.07,.1,.12,.22,.15,.34,.66,2.51-6.45,12.33-9.08,12.41-3.23,.1-6.47,.02-9.7,.02v-.03Z"/>
      <path class="cls-2" d="M20.97,53.17c-2.67,.8-4-.89-5.75-3.3-4.25-5.85-4.26-11.02,.25-16.7,2.38-2.99,4.04-6.58,5.82-10.01,1.13-2.17,2.68-3.1,5.07-2.98,1.36,.07,2.74-.07,4.11-.12,6.86-.27,7.01-.11,9.46,6.22,.63,1.64,.34,2.35-1.37,2.44-2.61,.13-5.23,.36-7.84,.29-2.44-.06-3.72,1.06-5.02,3.06-3.39,5.19-5.96,9.93-1.31,16.07,3.24,4.28,2.68,4.7-3.41,5.03Z"/>
      <path class="cls-2" d="M71.25,20.29c5.24-1.49,8.03,1.34,10.2,5.9,2.03,4.26,4.58,8.27,7.1,12.28,1.21,1.93,1.38,3.6,.19,5.53-.78,1.27-1.39,2.64-2.08,3.97-3.02,5.77-4.21,6.28-10.54,5.05-1.66-.32-1.78-1.02-1.14-2.28,1.29-2.56,2.49-5.17,3.92-7.64,1.01-1.74,1.03-3.25-.2-4.81-.08-.1-.14-.21-.18-.33-2.43-6.64-6.58-10.16-14.22-9.31-4.22,.47-3.9-.06-2.54-3.93,1.72-4.91,5.02-5.52,9.5-4.43Z"/>
    </g>
  </g>
</svg>