<?xml version="1.0" encoding="UTF-8"?>
<svg id="Capa_2" data-name="Capa 2" xmlns="http://www.w3.org/2000/svg" viewBox="0 0 100.97 101.34">
  <defs>
    <style>
      .cls-1 {
        fill: #18ade1;
      }

      .cls-2 {
        fill: #19aee3;
      }
    </style>
  </defs>
  <g id="Capa_1-2" data-name="Capa 1">
    <g>
      <path class="cls-2" d="M.01,50.36C-.02,22.55,22.78-.18,50.28,0c29.06,.2,50.57,22.64,50.69,50.62,.12,28.52-23.04,50.52-50.44,50.72C22.7,101.54-.62,77.65,.01,50.36Z"/>
      <path d="M81.67,19.03c-1.73,1.69-3.19,1.65-4.45,2.07-3.68,1.23-7.3,2.58-10.54,4.74-9.54,6.36-11.02,14.27-4.25,23.52,2.72,3.72,5.91,7.09,8.66,10.79,3.5,4.72,5.77,9.99,4.99,16.02-.97,7.49-7.45,13.09-16.88,14.59-10.65,1.69-20.72-.07-30.49-4.82-19.92-9.68-22.94-35.1-4.61-49.68,10.93-8.7,23.99-12.53,37.51-14.81,6.37-1.08,12.85-1.58,20.06-2.43Z"/>
      <path class="cls-1" d="M44.27,86.35c-4.99-.48-10.13-2.09-14.28-6.1-1-.97-2.01-2.01-1.49-3.56,.58-1.72,2.13-2.01,3.65-2,5.68,.04,10.75,1.84,15.11,5.52,1.32,1.12,2.91,2.33,2.11,4.36-.8,2.02-2.77,1.76-5.11,1.78Z"/>
    </g>
  </g>
</svg>